<svg xmlns="http://www.w3.org/2000/svg" viewBox="0 0 841.9 595.3">
    <svg id="Layer_1" enable-background="new 0 0 512.001 512.001" height="512" viewBox="0 0 512.001 512.001" width="512" xmlns="http://www.w3.org/2000/svg"><g><g><path d="m378.107 512h-363.107c-8.284 0-15-6.716-15-15v-373.999c0-8.284 6.716-15 15-15h482c8.284 0 15 6.716 15 15v254.637z" fill="#fff4f4"/></g><path d="m482 512h-103.893v-134.361h133.893v104.361c0 16.569-13.431 30-30 30z" fill="#e0d2cd"/><path d="m497 108.001h-241.014v403.999h122.121l133.893-134.361v-254.638c0-8.284-6.715-15-15-15z" fill="#f6efea"/><g><g><path d="m512.001 125.001h-512.001v-76.001c0-8.284 6.716-15 15-15h482.001c8.284 0 15 6.716 15 15z" fill="#453d81"/></g></g><path d="m497.001 34h-241.001v91.001h256v-76.001c.001-8.284-6.715-15-14.999-15z" fill="#38336b"/><path clip-rule="evenodd" d="m105.001 0c16.501 0 30 13.5 30 30v30c0 16.5-13.499 30-30 30h-.001c-16.5 0-30-13.5-30-30v-30c.001-16.5 13.5-30 30.001-30z" fill="#fdbf00" fill-rule="evenodd"/><path clip-rule="evenodd" d="m407.001 0c16.501 0 30 13.5 30 30v30c0 16.5-13.5 30-30 30h-.001c-16.5 0-30-13.5-30-30v-30c.001-16.5 13.5-30 30.001-30z" fill="#ff8856" fill-rule="evenodd"/><g><path d="m256 427.5c-19.444 0-48.331-23.438-67.16-43.509-16.093-17.153-43.089-50.92-43.089-84.341 0-35.923 29.226-65.148 65.148-65.148 17.236 0 33.211 6.605 45.101 18.049 11.89-11.443 27.865-18.049 45.101-18.049 35.923 0 65.149 29.226 65.149 65.148 0 36.25-27.091 69.709-43.24 86.427-18.458 19.108-47.083 41.423-67.01 41.423z" fill="#ff415b"/></g><path clip-rule="evenodd" d="m378.107 512v-119.361c0-8.284 6.716-15 15-15h118.893z" fill="#eee1dc" fill-rule="evenodd"/><path d="m301.102 234.501c-17.236 0-33.211 6.605-45.101 18.049v174.95c19.927 0 48.552-22.314 67.01-41.423 16.149-16.718 43.24-50.177 43.24-86.427-.001-35.923-29.226-65.149-65.149-65.149z" fill="#e50058"/></g></svg>
</svg>
